# xmcd CD database file
#
# Track frame offsets:
#	150
#	13299
#	27356
#	44673
#	59285
#	72465
#	90106
#	102954
#	119093
#	130397
#	149826
#
# Disc length: 2200 seconds
#
# Revision: 1
# Processed by: cddbd v1.5.2PL0 Copyright (c) Steve Scherf et al.
# Submitted via: CDex 1.70beta2
#
DISCID=a908960b
DTITLE=Kristyn Harris - My Mustang, My Martin and Me
DYEAR=2010
DGENRE=Country
TTITLE0=Roll on Texas Moon
TTITLE1=Swing Time Cowgirl
TTITLE2=Carry Me Back to the Lone Pririe
TTITLE3=Across the Alley from the Alamo
TTITLE4=How the West Was Swung
TTITLE5=Ridin' Down the Canyon
TTITLE6=Sioux City Sue
TTITLE7=Ridin' Away
TTITLE8=Roly Poly
TTITLE9=Twilight on the Trail
TTITLE10=Yodelin' Fever
EXTD=YEAR: 2010
EXTT0=
EXTT1=
EXTT2=
EXTT3=
EXTT4=
EXTT5=
EXTT6=
EXTT7=
EXTT8=
EXTT9=
EXTT10=
PLAYORDER=
